# xmcd
#
# Track frame offsets:
#	150
#	22770
#	42952
#	71465
#	91625
#	112532
#	131372
#	153742
#	171347
#	192967
#	215187
#	235082
#
# Disc length: 3484 seconds
#
# Revision: 1
# Processed by: cddbd v1.5PL3 Copyright (c) Steve Scherf et al.
# Submitted via: audiograbber 1.80.04
#
DISCID=930d9a0c
DTITLE=Toni Braxton - Toni Braxton
DYEAR=1993
DGENRE=R&B
TTITLE0=Antother sad love song
TTITLE1=Breathe again
TTITLE2=Seven whole days
TTITLE3=Love affair
TTITLE4=Candlelight
TTITLE5=Spending my time with you
TTITLE6=Love shoulda brought you home
TTITLE7=I belong to you
TTITLE8=How many ways
TTITLE9=You mean the world to me
TTITLE10=Best friend
TTITLE11=Breathe again (reprise, spanish version)
EXTD=
EXTT0=
EXTT1=
EXTT2=
EXTT3=
EXTT4=
EXTT5=
EXTT6=
EXTT7=
EXTT8=
EXTT9=
EXTT10=
EXTT11=
PLAYORDER=
